<?xml version="1.0" standalone="no"?>
<!DOCTYPE svg PUBLIC "-//W3C//DTD SVG 20010904//EN"
 "http://www.w3.org/TR/2001/REC-SVG-20010904/DTD/svg10.dtd">
<svg version="1.0" xmlns="http://www.w3.org/2000/svg"
 width="700.000000pt" height="700.000000pt" viewBox="0 0 700.000000 700.000000"
 preserveAspectRatio="xMidYMid meet">
<metadata>
Created by potrace 1.14, written by Peter Selinger 2001-2017
</metadata>
<g transform="translate(0.000000,700.000000) scale(0.100000,-0.100000)"
fill="#000000" stroke="none">
<path d="M580 6710 l0 -290 -290 0 -290 0 0 -2920 0 -2920 290 0 290 0 0 -290
0 -290 2920 0 2920 0 0 290 0 290 290 0 290 0 0 2920 0 2920 -290 0 -290 0 0
290 0 290 -2920 0 -2920 0 0 -290z m2330 -1750 l0 -290 295 0 295 0 0 -295 0
-295 -290 0 -290 0 0 -290 0 -290 -295 0 -295 0 0 295 0 295 -290 0 -290 0 0
290 0 290 290 0 290 0 0 290 0 290 290 0 290 0 0 -290z"/>
</g>
</svg>
